<svg xmlns="http://www.w3.org/2000/svg" width="495" height="170" viewBox="0 0 495 170">
<rect width="100%" height="100%" rx="10" fill="#0d1117" stroke="#30363d"/>
<text x="25" y="34" fill="#58a6ff" font-family="Arial, sans-serif" font-size="20" font-weight="700">Top Languages</text>
<text x="25" y="62" fill="#f0f6fc" font-family="Arial, sans-serif" font-size="13">Blade</text>
<rect x="125" y="51" width="250" height="10" rx="5" fill="#21262d"/>
<rect x="125" y="51" width="218" height="10" rx="5" fill="#58a6ff"/>
<text x="390" y="62" fill="#8b949e" font-family="Arial, sans-serif" font-size="12">52.0%</text>
<text x="25" y="80" fill="#f0f6fc" font-family="Arial, sans-serif" font-size="13">PHP</text>
<rect x="125" y="69" width="250" height="10" rx="5" fill="#21262d"/>
<rect x="125" y="69" width="76" height="10" rx="5" fill="#58a6ff"/>
<text x="390" y="80" fill="#8b949e" font-family="Arial, sans-serif" font-size="12">18.2%</text>
<text x="25" y="98" fill="#f0f6fc" font-family="Arial, sans-serif" font-size="13">TypeScript</text>
<rect x="125" y="87" width="250" height="10" rx="5" fill="#21262d"/>
<rect x="125" y="87" width="43" height="10" rx="5" fill="#58a6ff"/>
<text x="390" y="98" fill="#8b949e" font-family="Arial, sans-serif" font-size="12">10.4%</text>
<text x="25" y="116" fill="#f0f6fc" font-family="Arial, sans-serif" font-size="13">CSS</text>
<rect x="125" y="105" width="250" height="10" rx="5" fill="#21262d"/>
<rect x="125" y="105" width="32" height="10" rx="5" fill="#58a6ff"/>
<text x="390" y="116" fill="#8b949e" font-family="Arial, sans-serif" font-size="12">7.7%</text>
<text x="25" y="134" fill="#f0f6fc" font-family="Arial, sans-serif" font-size="13">HTML</text>
<rect x="125" y="123" width="250" height="10" rx="5" fill="#21262d"/>
<rect x="125" y="123" width="24" height="10" rx="5" fill="#58a6ff"/>
<text x="390" y="134" fill="#8b949e" font-family="Arial, sans-serif" font-size="12">5.9%</text>
<text x="25" y="152" fill="#f0f6fc" font-family="Arial, sans-serif" font-size="13">JavaScript</text>
<rect x="125" y="141" width="250" height="10" rx="5" fill="#21262d"/>
<rect x="125" y="141" width="23" height="10" rx="5" fill="#58a6ff"/>
<text x="390" y="152" fill="#8b949e" font-family="Arial, sans-serif" font-size="12">5.6%</text>
</svg>